<svg width="360" height="240" viewBox="0 0 360 240" fill="none" xmlns="http://www.w3.org/2000/svg">
<g clip-path="url(#clip0_90_143)">
<rect y="-60" width="120" height="120" fill="#0B34FE"/>
<rect x="120" y="-60" width="120" height="120" fill="#0B34FE"/>
<rect x="240" y="-60" width="120" height="120" fill="#0B34FE"/>
<path d="M64.2915 6.20833L70.9998 -0.5L64.2915 -7.20833L66.3332 -9.25L75.0832 -0.5L66.3332 8.25L64.2915 6.20833ZM56.7082 6.20833L49.9998 -0.5L56.7082 -7.20833L54.6665 -9.25L45.9165 -0.5L54.6665 8.25L56.7082 6.20833Z" fill="white" fill-opacity="0.1"/>
<path d="M180.333 -7.5C182.323 -7.5 184.23 -6.70982 185.637 -5.3033C187.043 -3.89678 187.833 -1.98912 187.833 0C187.833 2.775 186.321 5.2 184.083 6.5V8.75C184.083 9.08152 183.952 9.39946 183.717 9.63388C183.483 9.86831 183.165 10 182.833 10H177.833C177.502 10 177.184 9.86831 176.95 9.63388C176.715 9.39946 176.583 9.08152 176.583 8.75V6.5C174.346 5.2 172.833 2.775 172.833 0C172.833 -1.98912 173.624 -3.89678 175.03 -5.3033C176.437 -6.70982 178.344 -7.5 180.333 -7.5ZM182.833 11.25V12.5C182.833 12.8315 182.702 13.1495 182.467 13.3839C182.233 13.6183 181.915 13.75 181.583 13.75H179.083C178.752 13.75 178.434 13.6183 178.2 13.3839C177.965 13.1495 177.833 12.8315 177.833 12.5V11.25H182.833ZM190.333 -1.25H194.083V1.25H190.333V-1.25ZM166.583 -1.25H170.333V1.25H166.583V-1.25ZM181.583 -13.75V-10H179.083V-13.75H181.583ZM171.483 -10.625L174.146 -7.95L172.371 -6.1875L169.708 -8.8375L171.483 -10.625ZM186.521 -7.9625L189.171 -10.625L190.958 -8.8375L188.296 -6.1875L186.521 -7.9625Z" fill="white" fill-opacity="0.1"/>
<rect x="180" y="60" width="120" height="120" fill="#0B34FE"/>
<rect x="300" y="60" width="120" height="120" fill="#0B34FE"/>
<path d="M244.292 126.208L251 119.5L244.292 112.792L246.333 110.75L255.083 119.5L246.333 128.25L244.292 126.208ZM236.708 126.208L230 119.5L236.708 112.792L234.667 110.75L225.917 119.5L234.667 128.25L236.708 126.208Z" fill="white" fill-opacity="0.1"/>
<path d="M360.333 112.5C362.323 112.5 364.23 113.29 365.637 114.697C367.043 116.103 367.833 118.011 367.833 120C367.833 122.775 366.321 125.2 364.083 126.5V128.75C364.083 129.082 363.952 129.399 363.717 129.634C363.483 129.868 363.165 130 362.833 130H357.833C357.502 130 357.184 129.868 356.95 129.634C356.715 129.399 356.583 129.082 356.583 128.75V126.5C354.346 125.2 352.833 122.775 352.833 120C352.833 118.011 353.624 116.103 355.03 114.697C356.437 113.29 358.344 112.5 360.333 112.5ZM362.833 131.25V132.5C362.833 132.832 362.702 133.149 362.467 133.384C362.233 133.618 361.915 133.75 361.583 133.75H359.083C358.752 133.75 358.434 133.618 358.2 133.384C357.965 133.149 357.833 132.832 357.833 132.5V131.25H362.833ZM370.333 118.75H374.083V121.25H370.333V118.75ZM346.583 118.75H350.333V121.25H346.583V118.75ZM361.583 106.25V110H359.083V106.25H361.583ZM351.483 109.375L354.146 112.05L352.371 113.812L349.708 111.162L351.483 109.375ZM366.521 112.038L369.171 109.375L370.958 111.162L368.296 113.812L366.521 112.038Z" fill="white" fill-opacity="0.1"/>
<path d="M305.45 2.5C305.55 1.675 305.625 0.85 305.625 0C305.625 -0.85 305.55 -1.675 305.45 -2.5H309.675C309.875 -1.7 310 -0.8625 310 0C310 0.8625 309.875 1.7 309.675 2.5M303.238 9.45C303.988 8.0625 304.562 6.5625 304.962 5H308.65C307.45 7.0625 305.538 8.6625 303.238 9.45ZM302.925 2.5H297.075C296.95 1.675 296.875 0.85 296.875 0C296.875 -0.85 296.95 -1.6875 297.075 -2.5H302.925C303.038 -1.6875 303.125 -0.85 303.125 0C303.125 0.85 303.038 1.675 302.925 2.5ZM300 9.95C298.962 8.45 298.125 6.7875 297.613 5H302.387C301.875 6.7875 301.038 8.45 300 9.95ZM295 -5H291.35C292.537 -7.075 294.462 -8.675 296.75 -9.45C296 -8.0625 295.438 -6.5625 295 -5ZM291.35 5H295C295.438 6.5625 296 8.0625 296.75 9.45C294.462 8.6625 292.537 7.0625 291.35 5ZM290.325 2.5C290.125 1.7 290 0.8625 290 0C290 -0.8625 290.125 -1.7 290.325 -2.5H294.55C294.45 -1.675 294.375 -0.85 294.375 0C294.375 0.85 294.45 1.675 294.55 2.5M300 -9.9625C301.038 -8.4625 301.875 -6.7875 302.387 -5H297.613C298.125 -6.7875 298.962 -8.4625 300 -9.9625ZM308.65 -5H304.962C304.562 -6.5625 303.988 -8.0625 303.238 -9.45C305.538 -8.6625 307.45 -7.075 308.65 -5ZM300 -12.5C293.087 -12.5 287.5 -6.875 287.5 0C287.5 3.31521 288.817 6.49463 291.161 8.83883C292.322 9.99957 293.7 10.9203 295.216 11.5485C296.733 12.1767 298.358 12.5 300 12.5C303.315 12.5 306.495 11.183 308.839 8.83883C311.183 6.49463 312.5 3.31521 312.5 0C312.5 -1.64152 312.177 -3.26697 311.548 -4.78354C310.92 -6.30011 310 -7.6781 308.839 -8.83883C307.678 -9.99957 306.3 -10.9203 304.784 -11.5485C303.267 -12.1767 301.642 -12.5 300 -12.5Z" fill="white" fill-opacity="0.1"/>
<rect y="180" width="120" height="120" fill="#0B34FE"/>
<rect x="120" y="180" width="120" height="120" fill="#0B34FE"/>
<rect x="240" y="180" width="120" height="120" fill="#0B34FE"/>
<path d="M64.2915 246.208L70.9998 239.5L64.2915 232.792L66.3332 230.75L75.0832 239.5L66.3332 248.25L64.2915 246.208ZM56.7082 246.208L49.9998 239.5L56.7082 232.792L54.6665 230.75L45.9165 239.5L54.6665 248.25L56.7082 246.208Z" fill="white" fill-opacity="0.1"/>
<path d="M180.333 232.5C182.323 232.5 184.23 233.29 185.637 234.697C187.043 236.103 187.833 238.011 187.833 240C187.833 242.775 186.321 245.2 184.083 246.5V248.75C184.083 249.082 183.952 249.399 183.717 249.634C183.483 249.868 183.165 250 182.833 250H177.833C177.502 250 177.184 249.868 176.95 249.634C176.715 249.399 176.583 249.082 176.583 248.75V246.5C174.346 245.2 172.833 242.775 172.833 240C172.833 238.011 173.624 236.103 175.03 234.697C176.437 233.29 178.344 232.5 180.333 232.5ZM182.833 251.25V252.5C182.833 252.832 182.702 253.149 182.467 253.384C182.233 253.618 181.915 253.75 181.583 253.75H179.083C178.752 253.75 178.434 253.618 178.2 253.384C177.965 253.149 177.833 252.832 177.833 252.5V251.25H182.833ZM190.333 238.75H194.083V241.25H190.333V238.75ZM166.583 238.75H170.333V241.25H166.583V238.75ZM181.583 226.25V230H179.083V226.25H181.583ZM171.483 229.375L174.146 232.05L172.371 233.812L169.708 231.162L171.483 229.375ZM186.521 232.038L189.171 229.375L190.958 231.162L188.296 233.812L186.521 232.038Z" fill="white" fill-opacity="0.1"/>
<path d="M305.45 242.5C305.55 241.675 305.625 240.85 305.625 240C305.625 239.15 305.55 238.325 305.45 237.5H309.675C309.875 238.3 310 239.137 310 240C310 240.863 309.875 241.7 309.675 242.5M303.238 249.45C303.988 248.062 304.562 246.562 304.962 245H308.65C307.45 247.062 305.538 248.662 303.238 249.45ZM302.925 242.5H297.075C296.95 241.675 296.875 240.85 296.875 240C296.875 239.15 296.95 238.312 297.075 237.5H302.925C303.038 238.312 303.125 239.15 303.125 240C303.125 240.85 303.038 241.675 302.925 242.5ZM300 249.95C298.962 248.45 298.125 246.788 297.613 245H302.387C301.875 246.788 301.038 248.45 300 249.95ZM295 235H291.35C292.537 232.925 294.462 231.325 296.75 230.55C296 231.938 295.438 233.438 295 235ZM291.35 245H295C295.438 246.562 296 248.062 296.75 249.45C294.462 248.662 292.537 247.062 291.35 245ZM290.325 242.5C290.125 241.7 290 240.863 290 240C290 239.137 290.125 238.3 290.325 237.5H294.55C294.45 238.325 294.375 239.15 294.375 240C294.375 240.85 294.45 241.675 294.55 242.5M300 230.038C301.038 231.538 301.875 233.213 302.387 235H297.613C298.125 233.213 298.962 231.538 300 230.038ZM308.65 235H304.962C304.562 233.438 303.988 231.938 303.238 230.55C305.538 231.338 307.45 232.925 308.65 235ZM300 227.5C293.087 227.5 287.5 233.125 287.5 240C287.5 243.315 288.817 246.495 291.161 248.839C292.322 250 293.7 250.92 295.216 251.548C296.733 252.177 298.358 252.5 300 252.5C303.315 252.5 306.495 251.183 308.839 248.839C311.183 246.495 312.5 243.315 312.5 240C312.5 238.358 312.177 236.733 311.548 235.216C310.92 233.7 310 232.322 308.839 231.161C307.678 230 306.3 229.08 304.784 228.452C303.267 227.823 301.642 227.5 300 227.5Z" fill="white" fill-opacity="0.1"/>
<rect x="-60" y="60" width="120" height="120" fill="#0B34FE"/>
<rect x="60" y="60" width="120" height="120" fill="#0B34FE"/>
<path d="M0.333496 112.5C2.32262 112.5 4.23027 113.29 5.6368 114.697C7.04332 116.103 7.8335 118.011 7.8335 120C7.8335 122.775 6.321 125.2 4.0835 126.5V128.75C4.0835 129.082 3.9518 129.399 3.71738 129.634C3.48296 129.868 3.16502 130 2.8335 130H-2.1665C-2.49802 130 -2.81597 129.868 -3.05039 129.634C-3.28481 129.399 -3.4165 129.082 -3.4165 128.75V126.5C-5.654 125.2 -7.1665 122.775 -7.1665 120C-7.1665 118.011 -6.37633 116.103 -4.9698 114.697C-3.56328 113.29 -1.65563 112.5 0.333496 112.5ZM2.8335 131.25V132.5C2.8335 132.832 2.7018 133.149 2.46738 133.384C2.23296 133.618 1.91502 133.75 1.5835 133.75H-0.916504C-1.24802 133.75 -1.56597 133.618 -1.80039 133.384C-2.03481 133.149 -2.1665 132.832 -2.1665 132.5V131.25H2.8335ZM10.3335 118.75H14.0835V121.25H10.3335V118.75ZM-13.4165 118.75H-9.6665V121.25H-13.4165V118.75ZM1.5835 106.25V110H-0.916504V106.25H1.5835ZM-8.5165 109.375L-5.854 112.05L-7.629 113.812L-10.2915 111.162L-8.5165 109.375ZM6.521 112.038L9.171 109.375L10.9585 111.162L8.296 113.812L6.521 112.038Z" fill="white" fill-opacity="0.1"/>
<path d="M125.45 122.5C125.55 121.675 125.625 120.85 125.625 120C125.625 119.15 125.55 118.325 125.45 117.5H129.675C129.875 118.3 130 119.137 130 120C130 120.863 129.875 121.7 129.675 122.5M123.238 129.45C123.988 128.062 124.562 126.562 124.962 125H128.65C127.45 127.062 125.538 128.662 123.238 129.45ZM122.925 122.5H117.075C116.95 121.675 116.875 120.85 116.875 120C116.875 119.15 116.95 118.312 117.075 117.5H122.925C123.038 118.312 123.125 119.15 123.125 120C123.125 120.85 123.038 121.675 122.925 122.5ZM120 129.95C118.962 128.45 118.125 126.788 117.613 125H122.387C121.875 126.788 121.038 128.45 120 129.95ZM115 115H111.35C112.537 112.925 114.462 111.325 116.75 110.55C116 111.938 115.438 113.438 115 115ZM111.35 125H115C115.438 126.562 116 128.062 116.75 129.45C114.462 128.662 112.537 127.062 111.35 125ZM110.325 122.5C110.125 121.7 110 120.863 110 120C110 119.137 110.125 118.3 110.325 117.5H114.55C114.45 118.325 114.375 119.15 114.375 120C114.375 120.85 114.45 121.675 114.55 122.5M120 110.038C121.038 111.538 121.875 113.213 122.387 115H117.613C118.125 113.213 118.962 111.538 120 110.038ZM128.65 115H124.962C124.562 113.438 123.988 111.938 123.238 110.55C125.538 111.338 127.45 112.925 128.65 115ZM120 107.5C113.087 107.5 107.5 113.125 107.5 120C107.5 123.315 108.817 126.495 111.161 128.839C112.322 130 113.7 130.92 115.216 131.548C116.733 132.177 118.358 132.5 120 132.5C123.315 132.5 126.495 131.183 128.839 128.839C131.183 126.495 132.5 123.315 132.5 120C132.5 118.358 132.177 116.733 131.548 115.216C130.92 113.7 130 112.322 128.839 111.161C127.678 110 126.3 109.08 124.784 108.452C123.267 107.823 121.642 107.5 120 107.5Z" fill="white" fill-opacity="0.1"/>
</g>
<defs>
<clipPath id="clip0_90_143">
<rect width="360" height="240" fill="white"/>
</clipPath>
</defs>
</svg>
